<?xml version="1.0" encoding="utf-8"?>
<!-- Generator: Adobe Illustrator 25.3.1, SVG Export Plug-In . SVG Version: 6.00 Build 0)  -->
<svg version="1.1" id="Warstwa_1" xmlns="http://www.w3.org/2000/svg" xmlns:xlink="http://www.w3.org/1999/xlink" x="0px" y="0px"
	 viewBox="0 0 430 430" style="enable-background:new 0 0 430 430;" xml:space="preserve">
<style type="text/css">
	.st0{fill:#EBE6EF;}
	.st1{opacity:0.5;fill:#EBE6EF;}
	.st2{fill:#646E78;}
	.st3{fill:#121331;}
	.st4{fill:#2CA58D;}
	.st5{opacity:0.5;fill:#2CA58D;}
	.st6{fill:#F24C00;}
	.st7{opacity:0.5;fill:#F24C00;}
	.st8{fill:#16c72e;}
	.st9{fill:#4BB3FD;}
	.st10{opacity:0.5;fill:#4BB3FD;}
	.st11{opacity:0.5;fill:#16c72e;}
	.st12{fill:#000000;}
	.st13{opacity:0.5;fill:#000000;}
	.st14{fill:#08A88A;}
	.st15{fill:#3A3347;}
	.st16{fill:none;stroke:#121331;stroke-width:4;stroke-linecap:round;stroke-linejoin:round;stroke-miterlimit:13.464;}
	.st17{opacity:0.5;}
</style>
<path class="st3" d="M292.35,202.12c-1.93,0-3.5-1.57-3.5-3.5v-60.97c0-31.69-27.5-57.47-61.3-57.47h-25.09
	c-33.8,0-61.3,25.78-61.3,57.47v60.97c0,1.93-1.57,3.5-3.5,3.5s-3.5-1.57-3.5-3.5v-60.97c0-35.55,30.64-64.47,68.3-64.47h25.09
	c37.66,0,68.3,28.92,68.3,64.47v60.97C295.85,200.55,294.28,202.12,292.35,202.12z"/>
<path class="st8" d="M319.45,199.24c-0.06-1.44-1.25-2.6-2.73-2.64c-0.5-0.01-20.94-0.02-40.41-0.02H153.46
	c-19.21,0-39.87,0.01-40.31,0.02c-1.4,0.05-2.54,1.18-2.6,2.58c-0.02,0.5-0.02,25-0.01,40.32l0.03,74.22
	c0.01,22.94,18.68,41.6,41.61,41.6h125.65c22.94,0,41.61-18.66,41.61-41.6l0.03-74.11C319.47,224.28,319.47,199.77,319.45,199.24z"
	/>
<path class="st11" d="M141.28,310.75l-0.03-79.51c0-10.65-0.01-25.44,0-34.66c-14.85,0-27.75,0.01-28.1,0.02
	c-1.4,0.05-2.54,1.18-2.6,2.58c-0.02,0.5-0.02,25-0.01,40.32l0.03,74.22c0.01,22.94,18.68,41.6,41.61,41.6h30.72
	C159.96,355.32,141.29,335.32,141.28,310.75z"/>
<path class="st12" d="M242.33,246.63h-54.67c-1.1,0-2,0.9-2,2v54.67c0,1.1,0.9,2,2,2h54.67c1.1,0,2-0.9,2-2v-54.67
	C244.33,247.53,243.44,246.63,242.33,246.63z"/>
<path class="st13" d="M205.17,246.63h-17.51c-1.1,0-2,0.9-2,2v54.67c0,1.1,0.9,2,2,2h17.51V246.63z"/>
</svg>
