<?xml version="1.0" encoding="utf-8"?>
<!-- Generator: Adobe Illustrator 25.3.1, SVG Export Plug-In . SVG Version: 6.00 Build 0)  -->
<svg version="1.1" id="Warstwa_1" xmlns="http://www.w3.org/2000/svg" xmlns:xlink="http://www.w3.org/1999/xlink" x="0px" y="0px"
	 viewBox="0 0 430 430" style="enable-background:new 0 0 430 430;" xml:space="preserve">
<style type="text/css">
	.st0{fill:#EBE6EF;}
	.st1{opacity:0.5;fill:#EBE6EF;}
	.st2{fill:#646E78;}
	.st3{fill:#121331;}
	.st4{fill:#2CA58D;}
	.st5{opacity:0.5;fill:#2CA58D;}
	.st6{fill:#F24C00;}
	.st7{opacity:0.5;fill:#F24C00;}
	.st8{fill:#16c72e;}
	.st9{fill:#4BB3FD;}
	.st10{opacity:0.5;fill:#4BB3FD;}
	.st11{opacity:0.5;fill:#16c72e;}
	.st12{fill:#000000;}
	.st13{opacity:0.5;fill:#000000;}
	.st14{fill:#08A88A;}
	.st15{fill:#3A3347;}
	.st16{fill:none;stroke:#121331;stroke-width:4;stroke-linecap:round;stroke-linejoin:round;stroke-miterlimit:13.464;}
	.st17{opacity:0.5;}
</style>
<path class="st3" d="M195.42,208.85C195.42,208.85,195.42,208.85,195.42,208.85c-1.93,0-3.5-1.57-3.5-3.5l0.03-70.64
	c0.01-16.36-6.37-31.75-17.95-43.32c-11.57-11.57-26.94-17.94-43.29-17.94c-0.01,0-0.03,0-0.04,0l-10.9,0.01
	c-33.81,0.02-61.35,24.21-61.41,53.91l-0.1,57.37c0,1.93-1.57,3.49-3.5,3.49c0,0,0,0-0.01,0c-1.93,0-3.5-1.57-3.49-3.51l0.1-57.37
	c0.06-33.56,30.75-60.88,68.4-60.9l10.9-0.01c0.01,0,0.03,0,0.04,0c18.22,0,35.34,7.1,48.24,19.99c12.9,12.9,20,30.04,20,48.28
	l-0.03,70.64C198.92,207.28,197.36,208.85,195.42,208.85z"/>
<path class="st8" d="M379.22,207.93c-0.06-1.44-1.25-2.6-2.73-2.64c-0.5-0.01-20.94-0.02-40.41-0.02H213.23
	c-19.21,0-39.87,0.01-40.31,0.02c-1.4,0.05-2.54,1.18-2.6,2.58c-0.02,0.5-0.02,25-0.01,40.32l0.03,74.22
	c0.01,22.94,18.68,41.6,41.61,41.6H337.6c22.94,0,41.61-18.66,41.61-41.6l0.03-74.11C379.24,232.98,379.24,208.46,379.22,207.93z"/>
<path class="st11" d="M201.05,319.44l-0.03-79.51c0-10.65-0.01-25.44,0-34.66c-14.85,0-27.75,0.01-28.1,0.02
	c-1.4,0.05-2.54,1.18-2.6,2.58c-0.02,0.5-0.02,25-0.01,40.32l0.03,74.22c0.01,22.94,18.68,41.6,41.61,41.6h30.72
	C219.72,364.01,201.06,344.02,201.05,319.44z"/>
<path class="st12" d="M241.93,282.38c0-16.76,13.61-30.37,30.37-30.37l0,0c16.76,0,30.37,13.61,30.37,30.37l0,0
	c0,16.76-13.61,30.37-30.37,30.37l0,0C255.54,312.75,241.93,299.14,241.93,282.38L241.93,282.38z"/>
<path class="st13" d="M283.48,304.72c-16.76,0-30.37-13.61-30.37-30.37c0-7.67,2.85-14.67,7.55-20.02
	c-10.99,4.57-18.73,15.41-18.73,28.05c0,16.76,13.61,30.37,30.37,30.37c9.09,0,17.25-4.01,22.82-10.35
	C291.54,303.89,287.6,304.72,283.48,304.72z"/>
</svg>
